# xmcd CD database file
#
# Track frame offsets:
#	150
#	19655
#	36082
#	59822
#	78349
#	106542
#	138274
#	153893
#	171146
#	187054
#
# Disc length: 2826 seconds
#
# Revision: 3
# Processed by: cddbd v1.5.2PL0 Copyright (c) Steve Scherf et al.
# Submitted via: CDex 1.51
#
DISCID=780b080a
DTITLE=Just Jazz - I Love Being Here With You
DYEAR=2010
DGENRE=Jazz
TTITLE0=I Love Being Here With You
TTITLE1=Honeysuckle Rose
TTITLE2=Dance Me To The End Of Love
TTITLE3=Moondance
TTITLE4=Witchcraft
TTITLE5=This Masquerade
TTITLE6=Let There Be Love
TTITLE7=I'm Singing In The Rain
TTITLE8=I Get A Kick Out Of You
TTITLE9=I Should Care
EXTD=YEAR: 2010
EXTT0=
EXTT1=
EXTT2=
EXTT3=
EXTT4=
EXTT5=
EXTT6=
EXTT7=
EXTT8=
EXTT9=
PLAYORDER=
